<svg width="40" height="40" viewBox="0 0 40 40" fill="none" xmlns="http://www.w3.org/2000/svg">
<rect width="40" height="40" rx="20" fill="#F4F4F5"/>
<path d="M18.8667 26.0002C18.9783 26.2031 19.1423 26.3724 19.3417 26.4903C19.5411 26.6082 19.7684 26.6704 20 26.6704C20.2316 26.6704 20.459 26.6082 20.6584 26.4903C20.8577 26.3724 21.0218 26.2031 21.1334 26.0002M16 17.3335C16 16.2726 16.4214 15.2552 17.1716 14.5051C17.9217 13.7549 18.9391 13.3335 20 13.3335C21.0609 13.3335 22.0783 13.7549 22.8284 14.5051C23.5786 15.2552 24 16.2726 24 17.3335C24 22.0002 26 23.3335 26 23.3335H14C14 23.3335 16 22.0002 16 17.3335Z" stroke="#18181B" stroke-width="1.33" stroke-linecap="round" stroke-linejoin="round"/>
</svg>
