<svg width="40" height="40" viewBox="0 0 40 40" fill="none" xmlns="http://www.w3.org/2000/svg">
<rect width="40" height="40" rx="20" fill="#F4F4F5"/>
<g clip-path="url(#clip0_216_2360)">
<path d="M13.3667 13.3667H14.7L16.4734 21.6467C16.5384 21.9499 16.7071 22.221 16.9505 22.4133C17.1939 22.6055 17.4966 22.7069 17.8067 22.7H24.3267C24.6301 22.6995 24.9244 22.5956 25.1607 22.4053C25.3971 22.215 25.5615 21.9497 25.6267 21.6534L26.7267 16.7H15.4134M18.0002 26C18.0002 26.3682 17.7017 26.6667 17.3335 26.6667C16.9653 26.6667 16.6668 26.3682 16.6668 26C16.6668 25.6318 16.9653 25.3333 17.3335 25.3333C17.7017 25.3333 18.0002 25.6318 18.0002 26ZM25.3335 26C25.3335 26.3682 25.035 26.6667 24.6668 26.6667C24.2986 26.6667 24.0002 26.3682 24.0002 26C24.0002 25.6318 24.2986 25.3333 24.6668 25.3333C25.035 25.3333 25.3335 25.6318 25.3335 26Z" stroke="#18181B" stroke-width="1.33" stroke-linecap="round" stroke-linejoin="round"/>
</g>
<defs>
<clipPath id="clip0_216_2360">
<rect width="16" height="16" fill="white" transform="translate(12 12)"/>
</clipPath>
</defs>
</svg>
