<svg width="40" height="40" viewBox="0 0 40 40" fill="none" xmlns="http://www.w3.org/2000/svg">
<rect width="40" height="40" rx="20" fill="#F4F4F5"/>
<path d="M24.6668 26V24.6667C24.6668 23.9594 24.3859 23.2811 23.8858 22.781C23.3857 22.281 22.7074 22 22.0002 22H18.0002C17.2929 22 16.6146 22.281 16.1145 22.781C15.6144 23.2811 15.3335 23.9594 15.3335 24.6667V26M22.6668 16.6667C22.6668 18.1394 21.4729 19.3333 20.0002 19.3333C18.5274 19.3333 17.3335 18.1394 17.3335 16.6667C17.3335 15.1939 18.5274 14 20.0002 14C21.4729 14 22.6668 15.1939 22.6668 16.6667Z" stroke="#18181B" stroke-width="1.33" stroke-linecap="round" stroke-linejoin="round"/>
</svg>
