<svg width="24" height="24" viewBox="0 0 24 24" fill="none" xmlns="http://www.w3.org/2000/svg">
<rect width="24" height="24" rx="12" fill="white"/>
<path d="M19 10.8944C15.7495 10.8944 13.1056 8.25045 13.1056 5H10.8944C10.8944 8.25045 8.25045 10.8944 5 10.8944V13.1056C8.25045 13.1056 10.8944 15.7495 10.8944 19H13.1056C13.1056 15.7495 15.7495 13.1056 19 13.1056V10.8944ZM12 14.9219C11.2956 13.7153 10.2847 12.7044 9.07807 12C10.2847 11.2924 11.2924 10.2847 12 9.07807C12.7076 10.2847 13.7153 11.2924 14.9219 12C13.7153 12.7076 12.7076 13.7153 12 14.9219Z" fill="#2E35FF"/>
</svg>
