<svg width="23" height="23" viewBox="0 0 23 23" fill="none" xmlns="http://www.w3.org/2000/svg">
<path d="M19.9652 0H2.85217C1.27696 0 0 1.27696 0 2.85217V19.9652C0 21.5404 1.27696 22.8173 2.85217 22.8173H19.9652C21.5404 22.8173 22.8173 21.5404 22.8173 19.9652V2.85217C22.8173 1.27696 21.5404 0 19.9652 0Z" fill="#18181B"/>
<path d="M11.5447 11.0658L16.8498 7.54338L14.6465 3.75L5.96875 9.24042L5.99014 9.27607C5.99014 9.27607 5.97588 9.27607 5.96875 9.27607V13.6613C8.89222 13.6613 11.2667 16.0928 11.2667 19.0733H15.6519C15.6519 15.7719 14.0261 12.8484 11.5447 11.0729V11.0658Z" fill="#CEFF3E"/>
</svg>
