<svg width="203" height="18" viewBox="0 0 203 18" fill="none" xmlns="http://www.w3.org/2000/svg">
<path d="M117.945 9.25593V7.64731H116.442V14.7002H117.945V11.4848C117.945 10.7269 118.268 9.98875 118.871 9.5294C119.494 9.05396 120.332 8.81803 121.273 8.81803V7.5061C119.82 7.5061 118.51 8.12453 117.945 9.25593V9.25593Z" fill="white"/>
<path d="M126.135 7.37679C123.424 7.37679 121.804 8.84421 121.804 11.1857C121.804 13.5271 123.423 14.9695 126.237 14.9695C127.883 14.9695 129.103 14.5709 130.067 13.7076L129.192 12.7675C128.422 13.4502 127.611 13.7845 126.314 13.7845C124.54 13.7845 123.423 13.0374 123.282 11.5056H130.272C130.297 11.4287 130.311 11.3376 130.311 11.1714C130.311 8.69943 128.666 7.375 126.135 7.375V7.37679ZM123.348 10.4403C123.63 9.19275 124.672 8.56181 126.15 8.56181C127.538 8.56181 128.539 9.14091 128.861 10.4278L123.348 10.4403Z" fill="white"/>
<path d="M142.615 7.38953C141.125 7.38953 139.917 8.16167 139.403 9.3449C139.042 8.18669 138.143 7.38953 136.563 7.38953C135.214 7.38953 134.109 8.02046 133.556 9.01066V7.64691H132.053V14.6998H133.556V11.2395C133.556 9.83285 134.673 8.65319 136.078 8.63889C136.09 8.63889 136.101 8.63889 136.114 8.63889C137.488 8.63889 138.105 9.43605 138.105 10.7373V14.7016H139.595L139.585 11.2449C139.581 9.89004 140.615 8.72111 141.966 8.64604C142.032 8.64247 142.098 8.64068 142.165 8.64068C143.54 8.64068 144.157 9.43784 144.157 10.739V14.7034H145.635V10.6497C145.635 8.82299 144.735 7.3931 142.615 7.3931V7.38953Z" fill="white"/>
<path d="M151.73 7.37679C149.019 7.37679 147.398 8.84421 147.398 11.1857C147.398 13.5271 149.017 14.9695 151.832 14.9695C153.477 14.9695 154.698 14.5709 155.661 13.7076L154.787 12.7675C154.016 13.4502 153.206 13.7845 151.908 13.7845C150.134 13.7845 149.017 13.0374 148.876 11.5056H155.867C155.892 11.4287 155.906 11.3376 155.906 11.1714C155.906 8.69943 154.26 7.375 151.73 7.375V7.37679ZM148.942 10.4403C149.224 9.19275 150.266 8.56181 151.744 8.56181C153.133 8.56181 154.134 9.14091 154.455 10.4278L148.942 10.4403V10.4403Z" fill="white"/>
<path d="M164.199 8.90681C163.596 8.0185 162.464 7.38756 160.96 7.38756C158.672 7.38756 157.157 8.89251 157.157 11.1839C157.157 13.4753 158.674 14.9552 160.96 14.9552C162.463 14.9552 163.594 14.3243 164.199 13.4503V14.6979H165.702V5.1748H164.199V8.90681ZM162.438 13.5414C162.095 13.638 161.729 13.6809 161.345 13.6809C159.598 13.6809 158.622 12.78 158.622 11.1839C158.622 9.5878 159.598 8.67446 161.345 8.67446C161.724 8.67446 162.086 8.71557 162.425 8.80851C163.482 9.09449 164.199 10.0811 164.199 11.1768C164.199 12.2688 163.487 13.2483 162.438 13.5414Z" fill="white"/>
<path d="M169.554 7.64758H168.064V14.7005H169.554V7.64758Z" fill="white"/>
<path d="M168.794 5.00818C168.241 5.00818 167.831 5.35671 167.831 5.84466C167.831 6.30759 168.241 6.68115 168.794 6.68115C169.348 6.68115 169.746 6.30759 169.746 5.84466C169.746 5.35493 169.348 5.00818 168.794 5.00818Z" fill="white"/>
<path d="M178.246 11.1401C178.246 11.9998 177.819 12.8148 177.086 13.2635C176.598 13.562 176.033 13.7085 175.417 13.7085C174.016 13.7085 173.309 12.9614 173.309 11.5726V7.64758H171.819V11.6763C171.819 13.5816 172.886 14.9579 175.031 14.9579C176.47 14.9579 177.626 14.4556 178.244 13.4529V14.7005H179.747V7.64758H178.244V11.1419L178.246 11.1401Z" fill="white"/>
<path d="M192.63 7.38953C191.14 7.38953 189.932 8.16167 189.418 9.3449C189.057 8.18669 188.158 7.38953 186.578 7.38953C185.229 7.38953 184.125 8.02046 183.571 9.01066V7.64691H182.069V14.6998H183.571V11.2395C183.571 9.83285 184.689 8.65319 186.093 8.63889C186.106 8.63889 186.116 8.63889 186.129 8.63889C187.503 8.63889 188.12 9.43605 188.12 10.7373V14.7016H189.611L189.6 11.2449C189.596 9.89004 190.63 8.72111 191.981 8.64604C192.047 8.64247 192.113 8.64068 192.181 8.64068C193.555 8.64068 194.172 9.43784 194.172 10.739V14.7034H195.65V10.6497C195.65 8.82299 194.75 7.3931 192.63 7.3931V7.38953Z" fill="white"/>
<path d="M202.767 3.33522C200.931 3.33522 199.437 1.83919 199.437 0H198.188C198.188 1.83919 196.694 3.33522 194.857 3.33522V4.58637C196.694 4.58637 198.188 6.08239 198.188 7.92158H199.437C199.437 6.08239 200.931 4.58637 202.767 4.58637V3.33522ZM198.812 5.6141C198.414 4.93133 197.843 4.35937 197.161 3.96079C197.843 3.56042 198.412 2.99025 198.812 2.30748C199.212 2.99025 199.781 3.56042 200.463 3.96079C199.781 4.36116 199.212 4.93133 198.812 5.6141Z" fill="white"/>
<path d="M103.801 14.7718C103.164 14.7718 102.602 14.6111 102.115 14.2896C101.628 13.9648 101.247 13.5074 100.972 12.9174C100.697 12.3241 100.559 11.6231 100.559 10.8144C100.559 10.0123 100.697 9.31632 100.972 8.72636C101.247 8.1364 101.63 7.68067 102.12 7.35918C102.611 7.03768 103.177 6.87693 103.82 6.87693C104.318 6.87693 104.71 6.95979 104.999 7.12551C105.29 7.28792 105.512 7.47352 105.665 7.68233C105.821 7.88782 105.942 8.05686 106.028 8.18943H106.127V4.43091H107.301V14.6127H106.167V13.4394H106.028C105.942 13.5786 105.819 13.7543 105.66 13.9664C105.501 14.1752 105.274 14.3625 104.979 14.5282C104.684 14.6906 104.291 14.7718 103.801 14.7718ZM103.96 13.7178C104.43 13.7178 104.828 13.5952 105.153 13.3499C105.478 13.1014 105.725 12.7583 105.894 12.3208C106.063 11.88 106.147 11.3712 106.147 10.7945C106.147 10.2245 106.064 9.72565 105.899 9.2981C105.733 8.86723 105.488 8.53247 105.163 8.29383C104.838 8.05188 104.437 7.93091 103.96 7.93091C103.462 7.93091 103.048 8.05851 102.717 8.31372C102.389 8.56562 102.142 8.90865 101.976 9.34284C101.814 9.77371 101.732 10.2576 101.732 10.7945C101.732 11.3381 101.815 11.8319 101.981 12.2761C102.15 12.7169 102.399 13.0682 102.727 13.3301C103.058 13.5886 103.469 13.7178 103.96 13.7178Z" fill="white"/>
<path d="M95.6658 14.7718C94.9764 14.7718 94.3715 14.6078 93.8512 14.2797C93.3341 13.9515 92.9298 13.4925 92.6381 12.9025C92.3497 12.3126 92.2056 11.6232 92.2056 10.8343C92.2056 10.0389 92.3497 9.34452 92.6381 8.75124C92.9298 8.15797 93.3341 7.69727 93.8512 7.36914C94.3715 7.04102 94.9764 6.87695 95.6658 6.87695C96.3552 6.87695 96.9584 7.04102 97.4754 7.36914C97.9958 7.69727 98.4002 8.15797 98.6885 8.75124C98.9802 9.34452 99.126 10.0389 99.126 10.8343C99.126 11.6232 98.9802 12.3126 98.6885 12.9025C98.4002 13.4925 97.9958 13.9515 97.4754 14.2797C96.9584 14.6078 96.3552 14.7718 95.6658 14.7718ZM95.6658 13.7179C96.1895 13.7179 96.6203 13.5836 96.9584 13.3152C97.2965 13.0467 97.5467 12.6937 97.7091 12.2562C97.8715 11.8187 97.9527 11.3448 97.9527 10.8343C97.9527 10.3239 97.8715 9.84831 97.7091 9.40749C97.5467 8.96668 97.2965 8.61038 96.9584 8.3386C96.6203 8.06682 96.1895 7.93093 95.6658 7.93093C95.1421 7.93093 94.7112 8.06682 94.3732 8.3386C94.0351 8.61038 93.7849 8.96668 93.6225 9.40749C93.4601 9.84831 93.3789 10.3239 93.3789 10.8343C93.3789 11.3448 93.4601 11.8187 93.6225 12.2562C93.7849 12.6937 94.0351 13.0467 94.3732 13.3152C94.7112 13.5836 95.1421 13.7179 95.6658 13.7179Z" fill="white"/>
<path d="M78.9812 14.6128L76.6545 6.97644H77.8875L79.5381 12.823H79.6176L81.2483 6.97644H82.5011L84.1119 12.8031H84.1915L85.842 6.97644H87.075L84.7483 14.6128H83.5949L81.9244 8.74633H81.8051L80.1347 14.6128H78.9812Z" fill="white"/>
<path d="M72.2595 14.7719C71.5702 14.7719 70.9653 14.6078 70.4449 14.2797C69.9279 13.9515 69.5235 13.4925 69.2318 12.9025C68.9435 12.3126 68.7993 11.6232 68.7993 10.8344C68.7993 10.0389 68.9435 9.34454 69.2318 8.75127C69.5235 8.15799 69.9279 7.69729 70.4449 7.36916C70.9653 7.04104 71.5702 6.87698 72.2595 6.87698C72.9489 6.87698 73.5522 7.04104 74.0692 7.36916C74.5896 7.69729 74.9939 8.15799 75.2823 8.75127C75.5739 9.34454 75.7198 10.0389 75.7198 10.8344C75.7198 11.6232 75.5739 12.3126 75.2823 12.9025C74.9939 13.4925 74.5896 13.9515 74.0692 14.2797C73.5522 14.6078 72.9489 14.7719 72.2595 14.7719ZM72.2595 13.7179C72.7832 13.7179 73.2141 13.5837 73.5522 13.3152C73.8902 13.0467 74.1405 12.6937 74.3029 12.2562C74.4653 11.8187 74.5465 11.3448 74.5465 10.8344C74.5465 10.3239 74.4653 9.84833 74.3029 9.40752C74.1405 8.9667 73.8902 8.6104 73.5522 8.33862C73.2141 8.06684 72.7832 7.93095 72.2595 7.93095C71.7359 7.93095 71.305 8.06684 70.9669 8.33862C70.6289 8.6104 70.3786 8.9667 70.2162 9.40752C70.0538 9.84833 69.9726 10.3239 69.9726 10.8344C69.9726 11.3448 70.0538 11.8187 70.2162 12.2562C70.3786 12.6937 70.6289 13.0467 70.9669 13.3152C71.305 13.5837 71.7359 13.7179 72.2595 13.7179ZM71.7226 5.94232L72.9357 3.6355H74.3078L72.7567 5.94232H71.7226Z" fill="white"/>
<path d="M62.9502 11.8286L62.9303 10.3769H63.1689L66.5099 6.97636H67.9616L64.4019 10.5758H64.3025L62.9502 11.8286ZM61.8564 14.6127V4.43091H63.0297V14.6127H61.8564ZM66.7087 14.6127L63.7258 10.8343L64.561 10.019L68.2002 14.6127H66.7087Z" fill="white"/>
<path d="M54.8193 17.4764C54.6204 17.4764 54.4431 17.4599 54.2874 17.4267C54.1316 17.3969 54.0239 17.3671 53.9642 17.3372L54.2625 16.3031C54.5475 16.3761 54.7994 16.4026 55.0182 16.3827C55.2369 16.3628 55.4308 16.265 55.5999 16.0894C55.7722 15.917 55.9296 15.637 56.0722 15.2492L56.2909 14.6526L53.467 6.97644H54.7398L56.8477 13.0617H56.9273L59.0352 6.97644H60.308L57.0665 15.7264C56.9206 16.1209 56.74 16.4473 56.5246 16.7058C56.3091 16.9677 56.0589 17.1616 55.7739 17.2875C55.4921 17.4135 55.174 17.4764 54.8193 17.4764Z" fill="white"/>
<path d="M48.2517 14.7718C47.6154 14.7718 47.0536 14.6111 46.5664 14.2896C46.0791 13.9648 45.698 13.5074 45.4229 12.9174C45.1478 12.3241 45.0103 11.6231 45.0103 10.8144C45.0103 10.0123 45.1478 9.31632 45.4229 8.72636C45.698 8.1364 46.0808 7.68067 46.5713 7.35918C47.0619 7.03768 47.6286 6.87693 48.2716 6.87693C48.7688 6.87693 49.1615 6.95979 49.4499 7.12551C49.7416 7.28792 49.9636 7.47352 50.1161 7.68233C50.2719 7.88782 50.3928 8.05686 50.479 8.18943H50.5784V4.43091H51.7517V14.6127H50.6182V13.4394H50.479C50.3928 13.5786 50.2702 13.7543 50.1111 13.9664C49.952 14.1752 49.725 14.3625 49.43 14.5282C49.135 14.6906 48.7423 14.7718 48.2517 14.7718ZM48.4108 13.7178C48.8815 13.7178 49.2792 13.5952 49.604 13.3499C49.9288 13.1014 50.1757 12.7583 50.3448 12.3208C50.5138 11.88 50.5983 11.3712 50.5983 10.7945C50.5983 10.2245 50.5155 9.72565 50.3497 9.2981C50.184 8.86723 49.9388 8.53247 49.6139 8.29383C49.2891 8.05188 48.8881 7.93091 48.4108 7.93091C47.9137 7.93091 47.4994 8.05851 47.1679 8.31372C46.8398 8.56562 46.5929 8.90865 46.4272 9.34284C46.2648 9.77371 46.1836 10.2576 46.1836 10.7945C46.1836 11.3381 46.2664 11.8319 46.4321 12.2761C46.6012 12.7169 46.8497 13.0682 47.1779 13.3301C47.5093 13.5886 47.9203 13.7178 48.4108 13.7178Z" fill="white"/>
<path d="M40.4215 14.7718C39.6857 14.7718 39.051 14.6094 38.5174 14.2846C37.9871 13.9565 37.5777 13.4991 37.2894 12.9125C37.0043 12.3225 36.8618 11.6364 36.8618 10.8542C36.8618 10.072 37.0043 9.38263 37.2894 8.78604C37.5777 8.18614 37.9788 7.71881 38.4925 7.38406C39.0095 7.04599 39.6128 6.87695 40.3022 6.87695C40.6999 6.87695 41.0926 6.94324 41.4804 7.07582C41.8682 7.20839 42.2212 7.42383 42.5394 7.72212C42.8576 8.0171 43.1111 8.4082 43.3 8.89542C43.4889 9.38263 43.5834 9.98254 43.5834 10.6951V11.1923H37.697V10.1781H42.3902C42.3902 9.74722 42.3041 9.36275 42.1317 9.02468C41.9627 8.68661 41.7207 8.4198 41.4059 8.22425C41.0943 8.0287 40.7264 7.93093 40.3022 7.93093C39.8348 7.93093 39.4305 8.04693 39.0891 8.27894C38.751 8.50763 38.4908 8.80593 38.3086 9.17383C38.1263 9.54173 38.0351 9.93614 38.0351 10.3571V11.0332C38.0351 11.6099 38.1345 12.0988 38.3334 12.4998C38.5356 12.8975 38.8157 13.2008 39.1736 13.4096C39.5316 13.6151 39.9475 13.7179 40.4215 13.7179C40.7297 13.7179 41.0081 13.6748 41.2567 13.5886C41.5086 13.4991 41.7257 13.3665 41.908 13.1909C42.0903 13.0119 42.2311 12.7898 42.3306 12.5247L43.4641 12.8429C43.3448 13.2273 43.1442 13.5654 42.8625 13.8571C42.5808 14.1454 42.2328 14.3708 41.8185 14.5332C41.4042 14.6923 40.9385 14.7718 40.4215 14.7718Z" fill="white"/>
<path d="M25.0518 14.6127V6.97638H26.1853V8.16957H26.2847C26.4438 7.7619 26.7007 7.44537 27.0553 7.21999C27.4099 6.9913 27.8358 6.87695 28.333 6.87695C28.8368 6.87695 29.2561 6.9913 29.5908 7.21999C29.9289 7.44537 30.1924 7.7619 30.3813 8.16957H30.4608C30.6564 7.77515 30.9497 7.46194 31.3408 7.22994C31.7319 6.99461 32.2009 6.87695 32.7478 6.87695C33.4305 6.87695 33.989 7.09073 34.4232 7.51829C34.8574 7.94253 35.0745 8.60375 35.0745 9.50195V14.6127H33.9012V9.50195C33.9012 8.93851 33.7471 8.53581 33.4388 8.29386C33.1306 8.05191 32.7677 7.93093 32.3501 7.93093C31.8131 7.93093 31.3972 8.09334 31.1022 8.41815C30.8072 8.73964 30.6597 9.14731 30.6597 9.64116V14.6127H29.4665V9.38263C29.4665 8.94845 29.3257 8.59878 29.0439 8.33363C28.7622 8.06516 28.3993 7.93093 27.9552 7.93093C27.6502 7.93093 27.3652 8.01213 27.1001 8.17454C26.8382 8.33694 26.6261 8.56232 26.4637 8.85067C26.3046 9.13571 26.2251 9.4655 26.2251 9.84002V14.6127H25.0518Z" fill="white"/>
<path d="M15.4728 14.7917C14.9889 14.7917 14.5497 14.7006 14.1553 14.5183C13.7609 14.3327 13.4477 14.0659 13.2157 13.7179C12.9837 13.3665 12.8677 12.9423 12.8677 12.4451C12.8677 12.0076 12.9539 11.653 13.1262 11.3812C13.2985 11.1061 13.5289 10.8907 13.8172 10.7349C14.1056 10.5791 14.4238 10.4631 14.7718 10.3869C15.1231 10.3074 15.4761 10.2444 15.8307 10.198C16.2948 10.1383 16.6709 10.0936 16.9593 10.0637C17.251 10.0306 17.4631 9.97591 17.5957 9.89968C17.7315 9.82345 17.7995 9.69087 17.7995 9.50195V9.46218C17.7995 8.97165 17.6653 8.59049 17.3968 8.31871C17.1316 8.04693 16.7289 7.91104 16.1887 7.91104C15.6286 7.91104 15.1894 8.03368 14.8712 8.27894C14.553 8.52421 14.3293 8.78604 14.2001 9.06445L13.0864 8.66673C13.2853 8.20271 13.5504 7.84144 13.8819 7.58292C14.2166 7.32108 14.5812 7.13879 14.9756 7.03604C15.3734 6.92998 15.7645 6.87695 16.1489 6.87695C16.3942 6.87695 16.6759 6.90678 16.9941 6.96644C17.3156 7.02279 17.6255 7.14045 17.9238 7.31942C18.2254 7.4984 18.4756 7.76852 18.6745 8.12979C18.8734 8.49106 18.9728 8.97496 18.9728 9.5815V14.6127H17.7995V13.5787H17.7398C17.6603 13.7444 17.5277 13.9217 17.3421 14.1106C17.1565 14.2995 16.9096 14.4603 16.6013 14.5929C16.2931 14.7254 15.9169 14.7917 15.4728 14.7917ZM15.6518 13.7377C16.1158 13.7377 16.5069 13.6466 16.8251 13.4643C17.1466 13.282 17.3885 13.0467 17.5509 12.7583C17.7166 12.47 17.7995 12.1667 17.7995 11.8485V10.7747C17.7498 10.8343 17.6404 10.889 17.4714 10.9387C17.3056 10.9851 17.1134 11.0266 16.8947 11.063C16.6792 11.0962 16.4688 11.126 16.2633 11.1525C16.0611 11.1757 15.897 11.1956 15.7711 11.2122C15.4662 11.252 15.1811 11.3166 14.916 11.4061C14.6541 11.4922 14.442 11.6232 14.2796 11.7988C14.1205 11.9712 14.041 12.2065 14.041 12.5048C14.041 12.9125 14.1918 13.2207 14.4934 13.4295C14.7983 13.635 15.1844 13.7377 15.6518 13.7377Z" fill="white"/>
<path d="M11.0766 4.43091V14.6127H9.90332V4.43091H11.0766Z" fill="white"/>
<path d="M3.14205 14.6127H0V4.43091H3.28125C4.26894 4.43091 5.11411 4.63474 5.81676 5.04241C6.51941 5.44677 7.058 6.02845 7.43253 6.78744C7.80705 7.54312 7.99432 8.44795 7.99432 9.50193C7.99432 10.5625 7.8054 11.4757 7.42756 12.2413C7.04972 13.0036 6.49953 13.5902 5.77699 14.0012C5.05445 14.4089 4.17614 14.6127 3.14205 14.6127ZM1.23295 13.519H3.0625C3.90436 13.519 4.60204 13.3566 5.15554 13.0318C5.70904 12.707 6.12169 12.2446 6.39347 11.6447C6.66525 11.0448 6.80114 10.3305 6.80114 9.50193C6.80114 8.67996 6.6669 7.97234 6.39844 7.37906C6.12997 6.78247 5.72893 6.32508 5.19531 6.0069C4.6617 5.68541 3.99716 5.52466 3.2017 5.52466H1.23295V13.519Z" fill="white"/>
</svg>
