<svg version="1.1" id="Layer_1" xmlns:x="ns_extend;" xmlns:i="ns_ai;" xmlns:graph="ns_graphs;" xmlns="http://www.w3.org/2000/svg" xmlns:xlink="http://www.w3.org/1999/xlink" x="0px" y="0px" viewBox="0 0 115 46" style="enable-background:new 0 0 115 46;" xml:space="preserve">
 <style type="text/css">
  .st0{fill:#141414;}
	.st1{fill:#FFFFFF;}
	.st2{fill-rule:evenodd;clip-rule:evenodd;fill:#FFFFFF;}
 </style>
 <metadata>
  <sfw xmlns="ns_sfw;">
   <slices>
   </slices>
   <sliceSourceBounds bottomLeftOrigin="true" height="46" width="115" x="0" y="0">
   </sliceSourceBounds>
  </sfw>
 </metadata>
 <g>
  <rect class="st0" width="115" height="46">
  </rect>
  <path class="st1" d="M90.3,15.2c0.1,1.4-1.1,3.3-1.8,3.7L88,18.4c0.9-1.1,0.6-3.2,0-3.6l0.1-0.2c0.4,0,1.4,0.2,1.8,0.3
		C90.1,15,90.1,15.1,90.3,15.2">
  </path>
  <path class="st2" d="M99.7,26.7c0,2.5-1.9,4.4-5.1,4.4c-1.3,0-3-0.3-3.8-0.6c0,0-0.1-0.1-0.1-0.5c0-1.1,0.1-3,0.1-3.3h0.7
		c0.1,0.3,0.1,0.8,0.2,1.3c0.4,1.5,1.7,2,2.9,2c1.4,0,2.6-0.9,2.6-2.3c0-1.2-0.7-1.7-2.3-3L94.3,24c-2.1-1.6-3-3-3-4.8
		c0-2.2,1.8-4,4.8-4c1.2,0,2.6,0.2,3,0.4c0.2,0,0.3,0.1,0.3,0.2c0,0.3-0.1,1.7-0.1,3.2h-0.7c-0.2-1-0.3-2.6-2.7-2.6
		c-1.7,0-2.3,1.3-2.3,2.1c0,0.7,0.2,1.4,2.3,3l0.9,0.6C99,23.8,99.7,24.8,99.7,26.7">
  </path>
  <path class="st2" d="M65.1,24c-0.2,0.4-0.3,0.5-0.3,1.4c0,0,0,1.4,0,1.8c0,0.3,0,1,0,1.9c0.1,1.1,0.8,1.1,2.1,1.1v0.7h-6.9v-0.7
		c1.5,0,2-0.1,2-1.2c0.1-0.8,0.1-1.5,0.1-1.8v-2c0-0.7-0.2-0.9-0.5-1.5c-0.3-0.5-2.7-5-3.4-6c-0.6-0.9-1.3-1.6-2.5-1.6v-0.6h4.4
		c0,0,0.1,0.3,0.7,1.5c0.3,0.6,2.7,5.2,3.1,5.8l3.9-7.2H71v0.6c-0.9,0-1.4,0.3-2.1,1.2C68.2,18.1,65.8,22.7,65.1,24">
  </path>
  <path class="st2" d="M19.2,16.9c0,0,0,1.1,0,4v4.7c0,2.8,0,3.2,0.3,3.5c0.3,0.3,1.3,0.4,2.8,0.4c1.4,0,1.9-0.1,2.4-0.5
		c0.5-0.5,0.6-1,0.8-1.6h0.8c0,0-0.5,2.3-0.6,2.9c-0.1,0.4-0.2,0.5-0.2,0.5H14.6v-0.7c1.1,0,1.7-0.1,1.8-1.1c0.1-0.7,0.1-2.2,0.1-4
		v-3.9c0-3,0-3.3,0-3.9c-0.1-1.1-0.6-1.2-1.8-1.2v-0.6h4.5V16.9">
  </path>
  <path class="st2" d="M47.5,31.1c5.1,0,8.1-3.7,8.1-8.3c0-4.5-2.9-7.6-7.9-7.6c-5.5,0-8,4-8,8.1C39.7,27.8,42.6,31.1,47.5,31.1z
		 M47.2,16.4c3.1,0,5.4,2.8,5.4,7.2c0,4.2-1.6,6.4-4.6,6.4c-3.5,0-5.4-3.5-5.4-7.3C42.6,18.1,44.8,16.4,47.2,16.4z">
  </path>
  <path class="st2" d="M85.5,28.7c1.1-1.1,2.2-3.2,2.2-5.9c0-2.4-1-4.1-2-5.1c-2.2-2.2-5.5-2.2-8-2.2h0h-6.2v0.6c1,0,1.7,0.1,1.8,1.3
		c0,0.6,0,1,0,4V25c0,0.1,0,0.3,0,0.5c0,1.1,0,2.9-0.1,3.6c-0.1,1.1-0.6,1.1-2,1.1v0.7H79C82.7,30.8,84.5,29.6,85.5,28.7z
		 M76.2,16.8c0.2-0.1,0.7-0.1,1.1-0.1c4.3,0,7.4,2.1,7.4,6.9c0,4.2-2,6.3-6.1,6.3c-1.4,0-2-0.3-2.3-0.6C76,28.9,76,28.5,76,26.5V21
		c0-1.6,0-3.2,0-3.8C76,17,76,16.9,76.2,16.8z">
  </path>
  <path class="st2" d="M31.5,16.9c0,0,0,1.1,0,4v4.7c0,2.8,0,3.2,0.3,3.5c0.3,0.3,1.3,0.4,2.8,0.4c1.4,0,1.9-0.1,2.4-0.5
		c0.5-0.5,0.6-1,0.8-1.6h0.8c0,0-0.5,2.3-0.6,2.9c-0.1,0.4-0.2,0.5-0.2,0.5H27v-0.7c1.1,0,1.7-0.1,1.8-1.1c0.1-0.7,0.1-2.2,0.1-4
		v-3.9c0-3,0-3.3,0-3.9c-0.1-1.1-0.6-1.2-1.8-1.2v-0.6h4.5V16.9">
  </path>
 </g>
</svg>