<svg xmlns="http://www.w3.org/2000/svg" width="209.088" height="40.677" viewBox="0 0 209.088 40.677"><defs><style>.a{fill:#00539f;}</style></defs><g transform="translate(0 0)"><rect class="a" width="4.055" height="15.625" transform="translate(124.596 8.981)"/><path class="a" d="M266.006,120.423h4.449l-2.5-5.341a3.605,3.605,0,0,0-1.874-1.969c1.874-.853,2.774-2.086,2.774-3.793,0-3.131-2.069-4.524-6.326-4.524h-5.813v15.627h3.942v-6.347c.2,0,.311-.037.469-.037a2.648,2.648,0,0,1,2.892,1.9Zm-3.44-9.206h-1.909V107.55h1.909c1.452,0,2.145.684,2.145,1.813C264.712,110.6,264.051,111.217,262.566,111.217Z" transform="translate(-61.938 -95.817)"/><path class="a" d="M151.283,113.765H157.6v-2.894h-6.318V107.7h6.629v-2.9H147.339v15.627h10.767v-2.942h-6.824Z" transform="translate(-53.969 -95.817)"/><path class="a" d="M174.06,106.423c-1.95-1.47-3.979-1.627-6.518-1.627h-5.891v15.627h5.891c2.308,0,4.141-.045,5.9-1.163a7.622,7.622,0,0,0,3.71-6.649A7.4,7.4,0,0,0,174.06,106.423Zm-5.537,10.822h-2.929v-9.277h2.929a4.639,4.639,0,0,1,0,9.277Z" transform="translate(-55.012 -95.817)"/><path class="a" d="M246.257,113.765h6.324v-2.894h-6.324V107.7h6.637v-2.9H242.317v15.627h10.768v-2.942h-6.828Z" transform="translate(-60.889 -95.817)"/><path class="a" d="M134.077,111.1,129,104.8h-3.474v15.627h3.866V110.75l4.682,5.727,4.681-5.727v9.673h3.9V104.8h-3.51Z" transform="translate(-52.38 -95.817)"/><path class="a" d="M214.022,104.5a8.517,8.517,0,0,0-6.13,2.243,8.171,8.171,0,0,0,0,11.68,9.373,9.373,0,0,0,12.259,0,8.163,8.163,0,0,0,0-11.68A8.566,8.566,0,0,0,214.022,104.5Zm0,12.88a4.809,4.809,0,1,1,4.489-4.793A4.494,4.494,0,0,1,214.022,117.384Z" transform="translate(-58.202 -95.796)"/><path class="a" d="M231.4,113.883l-3.943-9.087h-4.216l7.183,15.775h1.719l7.689-15.775h-4.3Z" transform="translate(-59.499 -95.817)"/><path class="a" d="M192.062,112.591c0-2.981,1.95-4.835,5.153-4.835a9.635,9.635,0,0,1,5.233,1.7v-3.672a12.292,12.292,0,0,0-5.509-1.278c-5.5,0-8.978,3.325-8.978,8.087a7.984,7.984,0,0,0,2.461,5.911,8.726,8.726,0,0,0,6.128,2.208,11.832,11.832,0,0,0,6.053-1.628v-3.635a9.991,9.991,0,0,1-5.741,1.976A4.506,4.506,0,0,1,192.062,112.591Z" transform="translate(-56.929 -95.796)"/><path class="a" d="M76.191,118.093a3.745,3.745,0,1,0,3.747-3.715A3.731,3.731,0,0,0,76.191,118.093Z" transform="translate(-48.786 -96.515)"/><path class="a" d="M68.711,98.75A32.7,32.7,0,0,1,91,98.2c-7.457-3.556-16-4.1-23.027-1.356s-12.179,8.621-15.145,16.284A30.058,30.058,0,0,1,68.711,98.75Z" transform="translate(-47.083 -95.111)"/><path class="a" d="M68.024,100.944c7.145-2.675,15.377-1.552,22.365.995a30.365,30.365,0,0,1,16.2,14.04c-3.16-7.543-8.431-13.342-15.5-15.933C84.024,97.415,75.4,97.222,68.024,100.944Z" transform="translate(-48.191 -95.329)"/><path class="a" d="M46.632,119.339c9.02,1.319,24.709,6.46,24.709,17.716H84.225c0-11.256,15.692-16.4,24.745-17.716-9.093,0-24.32.854-31.185,7.66C70.957,120.193,55.692,119.339,46.632,119.339Z" transform="translate(-46.632 -96.876)"/><path class="a" d="M77.713,101.323c-6.95.309-13.236,3.908-18.153,9.669a28,28,0,0,1,18.227-7.776c6.875-.309,14.442,1.046,19.945,5.38A27.12,27.12,0,0,0,77.713,101.323Z" transform="translate(-47.574 -95.562)"/><path class="a" d="M128.822,133.122a13.319,13.319,0,0,1-1.264-.857,1.171,1.171,0,0,1-.46-.87.913.913,0,0,1,.364-.741,1.485,1.485,0,0,1,.964-.295,3.331,3.331,0,0,1,2.03.894v-1.417a3.772,3.772,0,0,0-1.979-.6,2.643,2.643,0,0,0-1.864.657,2.166,2.166,0,0,0-.715,1.666,2.114,2.114,0,0,0,.562,1.481,9.989,9.989,0,0,0,1.673,1.238,6.549,6.549,0,0,1,1.085.792,1.232,1.232,0,0,1,.37.881,1,1,0,0,1-.37.823,1.576,1.576,0,0,1-1.021.3,3.13,3.13,0,0,1-2.285-1.277v1.647a3.6,3.6,0,0,0,2.361.83,2.661,2.661,0,0,0,1.864-.652,2.139,2.139,0,0,0,.715-1.649,2.581,2.581,0,0,0-.537-1.675A6.429,6.429,0,0,0,128.822,133.122Z" transform="translate(-52.407 -97.598)"/><path class="a" d="M161.91,129.416h-2.718v8.719h1.238v-3.753h1.481a3.165,3.165,0,0,0,2.139-.657,2.559,2.559,0,0,0-.006-3.645A3.153,3.153,0,0,0,161.91,129.416Zm1.182,3.525a2.165,2.165,0,0,1-1.309.317H160.43v-2.719h1.354a2.165,2.165,0,0,1,1.309.318,1.517,1.517,0,0,1,0,2.084Z" transform="translate(-54.833 -97.611)"/><path class="a" d="M197.242,129.264a4.561,4.561,0,0,0-3.281,1.316,4.221,4.221,0,0,0-1.366,3.152,4.323,4.323,0,0,0,1.36,3.224,4.543,4.543,0,0,0,3.287,1.321,4.6,4.6,0,0,0,3.293-1.3,4.211,4.211,0,0,0,1.366-3.166,4.341,4.341,0,0,0-1.353-3.217A4.543,4.543,0,0,0,197.242,129.264Zm2.361,6.855a3.213,3.213,0,0,1-2.361.971,3.178,3.178,0,0,1-2.355-.977,3.212,3.212,0,0,1-.964-2.342,3.178,3.178,0,0,1,.989-2.368,3.229,3.229,0,0,1,2.33-.964,3.173,3.173,0,0,1,2.361,1,3.239,3.239,0,0,1,.971,2.336A3.2,3.2,0,0,1,199.6,136.119Z" transform="translate(-57.266 -97.6)"/><path class="a" d="M234.246,133.973a2.1,2.1,0,0,0,1.634-2.17,2.218,2.218,0,0,0-.715-1.762,3.01,3.01,0,0,0-2.042-.625h-2.553v8.719h1.239v-3.894h.372a1.727,1.727,0,0,1,1.168.422,6.528,6.528,0,0,1,.923,1.187l1.495,2.285h1.506l-2.119-3.191A2.89,2.89,0,0,0,234.246,133.973Zm-1.4-.779h-1.038v-2.719h1.038a2.233,2.233,0,0,1,1.321.313,1.21,1.21,0,0,1,.424,1.04Q234.591,133.194,232.846,133.194Z" transform="translate(-60.033 -97.611)"/><path class="a" d="M263.9,129.416v1.123h3.2v7.6h1.238v-7.6h3.2v-1.123Z" transform="translate(-62.462 -97.611)"/></g></svg>