<svg width="232" height="32" viewBox="0 0 232 32" fill="none" xmlns="http://www.w3.org/2000/svg">
<path d="M11.8557 12.6787C12.4224 17.5965 14.6666 24.3477 22.6818 24.3477L22.6818 17.813C22.6818 17.813 11.7514 18.4421 11.7514 7.65253L11.1176 7.65253C11.1101 18.4421 0.179687 17.813 0.179687 17.813L0.179688 24.3477C8.19486 24.3477 10.4317 17.5965 11.0058 12.6787L11.8557 12.6787Z" fill="black"/>
<path d="M39.4274 24L34.7355 7.37561H37.9744L40.9697 19.5923H41.1239L44.3221 7.37561H47.2688L50.4751 19.6004H50.6212L53.6165 7.37561H56.8554L52.1635 24H49.1926L45.8644 12.3353H45.7346L42.3983 24H39.4274ZM58.8137 24V11.5317H61.7522V24H58.8137ZM60.2911 9.76212C59.8257 9.76212 59.4252 9.60789 59.0897 9.29942C58.7542 8.98555 58.5864 8.60945 58.5864 8.17111C58.5864 7.72736 58.7542 7.35125 59.0897 7.04279C59.4252 6.72892 59.8257 6.57199 60.2911 6.57199C60.7619 6.57199 61.1623 6.72892 61.4924 7.04279C61.8279 7.35125 61.9957 7.72736 61.9957 8.17111C61.9957 8.60945 61.8279 8.98555 61.4924 9.29942C61.1623 9.60789 60.7619 9.76212 60.2911 9.76212ZM64.7739 24V11.5317H67.6231V13.6098H67.753C67.9802 12.89 68.3699 12.3353 68.9219 11.9457C69.4793 11.5506 70.1151 11.3531 70.8294 11.3531C70.9918 11.3531 71.1731 11.3612 71.3733 11.3775C71.579 11.3883 71.7494 11.4072 71.8847 11.4343V14.1374C71.7602 14.0941 71.5627 14.0562 71.2921 14.0237C71.027 13.9859 70.7699 13.9669 70.521 13.9669C69.9852 13.9669 69.5036 14.0833 69.0761 14.316C68.654 14.5433 68.3212 14.8598 68.0777 15.2657C67.8341 15.6716 67.7124 16.1397 67.7124 16.67V24H64.7739ZM80.7327 11.5317V13.8046H73.565V11.5317H80.7327ZM75.3346 8.54451H78.2731V20.2498C78.2731 20.6448 78.3326 20.9479 78.4517 21.1589C78.5761 21.3646 78.7385 21.5053 78.9387 21.581C79.1389 21.6568 79.3608 21.6947 79.6043 21.6947C79.7883 21.6947 79.9561 21.6811 80.1076 21.6541C80.2645 21.627 80.3836 21.6027 80.4648 21.581L80.9599 23.8782C80.803 23.9324 80.5784 23.9919 80.2862 24.0568C79.9994 24.1218 79.6476 24.1596 79.2309 24.1705C78.495 24.1921 77.832 24.0812 77.2422 23.8377C76.6523 23.5887 76.1842 23.2045 75.8379 22.685C75.4969 22.1655 75.3292 21.5161 75.3346 20.7368V8.54451ZM91.1371 18.7562V11.5317H94.0756V24H91.2264V21.784H91.0965C90.8151 22.482 90.3524 23.053 89.7084 23.4967C89.0699 23.9405 88.2825 24.1623 87.3463 24.1623C86.5291 24.1623 85.8067 23.9811 85.1789 23.6185C84.5566 23.2505 84.0696 22.7175 83.7178 22.0194C83.3661 21.3159 83.1902 20.4662 83.1902 19.4705V11.5317H86.1287V19.0159C86.1287 19.806 86.3451 20.4338 86.7781 20.8992C87.211 21.3646 87.7792 21.5973 88.4827 21.5973C88.9156 21.5973 89.335 21.4917 89.7409 21.2807C90.1468 21.0696 90.4796 20.7558 90.7394 20.3391C91.0045 19.917 91.1371 19.3893 91.1371 18.7562ZM100.685 24.2516C99.8951 24.2516 99.1835 24.1109 98.5503 23.8295C97.9226 23.5427 97.4247 23.1206 97.0567 22.5632C96.6941 22.0058 96.5128 21.3186 96.5128 20.5014C96.5128 19.7979 96.6427 19.2162 96.9025 18.7562C97.1622 18.2962 97.5167 17.9282 97.9658 17.6522C98.415 17.3762 98.921 17.1679 99.4838 17.0272C100.052 16.8811 100.639 16.7755 101.245 16.7106C101.976 16.6348 102.568 16.5672 103.023 16.5077C103.478 16.4427 103.808 16.3453 104.013 16.2154C104.224 16.0801 104.33 15.8718 104.33 15.5904V15.5417C104.33 14.9302 104.149 14.4567 103.786 14.1211C103.423 13.7856 102.901 13.6179 102.219 13.6179C101.5 13.6179 100.929 13.7748 100.507 14.0887C100.09 14.4026 99.8085 14.7732 99.6624 15.2008L96.9187 14.8111C97.1352 14.0535 97.4923 13.4203 97.9902 12.9117C98.4881 12.3976 99.0969 12.0133 99.8166 11.759C100.536 11.4992 101.332 11.3694 102.203 11.3694C102.804 11.3694 103.402 11.4397 103.997 11.5804C104.592 11.7211 105.136 11.9538 105.629 12.2785C106.121 12.5978 106.516 13.0334 106.814 13.5854C107.117 14.1374 107.268 14.8274 107.268 15.6553V24H104.444V22.2872H104.346C104.168 22.6336 103.916 22.9583 103.591 23.2613C103.272 23.559 102.869 23.7998 102.382 23.9838C101.9 24.1623 101.335 24.2516 100.685 24.2516ZM101.448 22.0924C102.038 22.0924 102.549 21.9761 102.982 21.7434C103.415 21.5053 103.748 21.1914 103.981 20.8018C104.219 20.4121 104.338 19.9873 104.338 19.5273V18.0581C104.246 18.1338 104.089 18.2042 103.867 18.2691C103.651 18.3341 103.407 18.3909 103.137 18.4396C102.866 18.4883 102.598 18.5316 102.333 18.5695C102.068 18.6074 101.838 18.6398 101.643 18.6669C101.205 18.7264 100.812 18.8238 100.466 18.9591C100.12 19.0944 99.8464 19.2838 99.6461 19.5273C99.4459 19.7654 99.3458 20.0739 99.3458 20.4527C99.3458 20.9939 99.5433 21.4024 99.9384 21.6784C100.333 21.9544 100.837 22.0924 101.448 22.0924ZM113.162 7.37561V24H110.223V7.37561H113.162ZM119.122 16.6944V24H116.183V11.5317H118.992V13.6503H119.138C119.425 12.9522 119.882 12.3976 120.51 11.9863C121.143 11.575 121.925 11.3694 122.856 11.3694C123.716 11.3694 124.466 11.5534 125.104 11.9213C125.748 12.2893 126.246 12.8224 126.598 13.5205C126.955 14.2186 127.131 15.0655 127.126 16.0612V24H124.187V16.5158C124.187 15.6824 123.971 15.0303 123.538 14.5595C123.11 14.0887 122.518 13.8533 121.76 13.8533C121.246 13.8533 120.789 13.9669 120.388 14.1942C119.993 14.4161 119.682 14.7381 119.455 15.1602C119.233 15.5823 119.122 16.0937 119.122 16.6944ZM131.493 28.6756C131.092 28.6756 130.722 28.6431 130.381 28.5782C130.045 28.5187 129.777 28.4483 129.577 28.3672L130.259 26.078C130.686 26.2025 131.068 26.262 131.403 26.2566C131.739 26.2512 132.034 26.1457 132.288 25.9401C132.548 25.7398 132.767 25.4043 132.946 24.9335L133.197 24.2598L128.676 11.5317H131.793L134.667 20.9479H134.796L137.678 11.5317H140.803L135.811 25.5098C135.578 26.17 135.27 26.7356 134.886 27.2064C134.501 27.6826 134.031 28.0452 133.473 28.2941C132.921 28.5484 132.261 28.6756 131.493 28.6756ZM153.929 28.9354C152.874 28.9354 151.967 28.792 151.21 28.5051C150.452 28.2237 149.843 27.8449 149.383 27.3687C148.923 26.8925 148.604 26.3649 148.426 25.7858L151.072 25.1446C151.191 25.3881 151.364 25.6289 151.591 25.867C151.819 26.1105 152.124 26.3107 152.509 26.4677C152.898 26.63 153.388 26.7112 153.978 26.7112C154.811 26.7112 155.501 26.5083 156.048 26.1024C156.594 25.7019 156.868 25.0417 156.868 24.1218V21.7596H156.721C156.57 22.0627 156.348 22.3738 156.056 22.6931C155.769 23.0124 155.388 23.2803 154.911 23.4967C154.44 23.7132 153.848 23.8214 153.134 23.8214C152.176 23.8214 151.307 23.5968 150.528 23.1477C149.754 22.6931 149.137 22.0167 148.677 21.1183C148.223 20.2146 147.995 19.0836 147.995 17.7253C147.995 16.3561 148.223 15.2008 148.677 14.2591C149.137 13.3121 149.757 12.5951 150.536 12.108C151.315 11.6156 152.184 11.3694 153.142 11.3694C153.872 11.3694 154.473 11.4938 154.944 11.7428C155.42 11.9863 155.799 12.2812 156.08 12.6276C156.362 12.9685 156.575 13.2905 156.721 13.5935H156.884V11.5317H159.782V24.2029C159.782 25.269 159.527 26.1511 159.019 26.8492C158.51 27.5473 157.815 28.0695 156.933 28.4159C156.05 28.7622 155.049 28.9354 153.929 28.9354ZM153.953 21.5161C154.576 21.5161 155.106 21.3646 155.544 21.0615C155.983 20.7585 156.316 20.3228 156.543 19.7546C156.77 19.1864 156.884 18.5045 156.884 17.709C156.884 16.9244 156.77 16.2371 156.543 15.6472C156.321 15.0574 155.991 14.6001 155.553 14.2754C155.12 13.9453 154.587 13.7802 153.953 13.7802C153.299 13.7802 152.752 13.9507 152.314 14.2916C151.875 14.6325 151.545 15.1006 151.323 15.6959C151.102 16.2858 150.991 16.9568 150.991 17.709C150.991 18.4721 151.102 19.1404 151.323 19.714C151.551 20.2822 151.884 20.726 152.322 21.0453C152.766 21.3591 153.309 21.5161 153.953 21.5161ZM166.381 24.2516C165.591 24.2516 164.879 24.1109 164.246 23.8295C163.619 23.5427 163.121 23.1206 162.753 22.5632C162.39 22.0058 162.209 21.3186 162.209 20.5014C162.209 19.7979 162.339 19.2162 162.598 18.7562C162.858 18.2962 163.213 17.9282 163.662 17.6522C164.111 17.3762 164.617 17.1679 165.18 17.0272C165.748 16.8811 166.335 16.7755 166.941 16.7106C167.672 16.6348 168.264 16.5672 168.719 16.5077C169.174 16.4427 169.504 16.3453 169.709 16.2154C169.92 16.0801 170.026 15.8718 170.026 15.5904V15.5417C170.026 14.9302 169.845 14.4567 169.482 14.1211C169.119 13.7856 168.597 13.6179 167.915 13.6179C167.196 13.6179 166.625 13.7748 166.203 14.0887C165.786 14.4026 165.504 14.7732 165.358 15.2008L162.615 14.8111C162.831 14.0535 163.188 13.4203 163.686 12.9117C164.184 12.3976 164.793 12.0133 165.513 11.759C166.232 11.4992 167.028 11.3694 167.899 11.3694C168.5 11.3694 169.098 11.4397 169.693 11.5804C170.288 11.7211 170.832 11.9538 171.325 12.2785C171.817 12.5978 172.212 13.0334 172.51 13.5854C172.813 14.1374 172.964 14.8274 172.964 15.6553V24H170.14V22.2872H170.042C169.864 22.6336 169.612 22.9583 169.287 23.2613C168.968 23.559 168.565 23.7998 168.078 23.9838C167.596 24.1623 167.031 24.2516 166.381 24.2516ZM167.144 22.0924C167.734 22.0924 168.245 21.9761 168.678 21.7434C169.111 21.5053 169.444 21.1914 169.677 20.8018C169.915 20.4121 170.034 19.9873 170.034 19.5273V18.0581C169.942 18.1338 169.785 18.2042 169.563 18.2691C169.347 18.3341 169.103 18.3909 168.833 18.4396C168.562 18.4883 168.294 18.5316 168.029 18.5695C167.764 18.6074 167.534 18.6398 167.339 18.6669C166.901 18.7264 166.508 18.8238 166.162 18.9591C165.816 19.0944 165.542 19.2838 165.342 19.5273C165.142 19.7654 165.042 20.0739 165.042 20.4527C165.042 20.9939 165.239 21.4024 165.634 21.6784C166.029 21.9544 166.533 22.0924 167.144 22.0924ZM176.049 24V7.37561H178.987V13.5935H179.109C179.261 13.2905 179.474 12.9685 179.75 12.6276C180.026 12.2812 180.4 11.9863 180.871 11.7428C181.341 11.4938 181.942 11.3694 182.673 11.3694C183.636 11.3694 184.505 11.6156 185.278 12.108C186.058 12.5951 186.675 13.3175 187.129 14.2754C187.589 15.2278 187.819 16.3967 187.819 17.7821C187.819 19.1512 187.595 20.3147 187.145 21.2726C186.696 22.2304 186.085 22.961 185.311 23.4643C184.537 23.9675 183.66 24.2192 182.681 24.2192C181.967 24.2192 181.374 24.1001 180.903 23.862C180.432 23.6239 180.054 23.3371 179.767 23.0016C179.485 22.6606 179.266 22.3386 179.109 22.0356H178.939V24H176.049ZM178.931 17.7659C178.931 18.5722 179.044 19.2784 179.272 19.8845C179.504 20.4906 179.837 20.9641 180.27 21.305C180.708 21.6405 181.239 21.8083 181.861 21.8083C182.51 21.8083 183.054 21.6351 183.493 21.2888C183.931 20.937 184.261 20.4581 184.483 19.852C184.71 19.2405 184.824 18.5451 184.824 17.7659C184.824 16.992 184.713 16.3047 184.491 15.704C184.269 15.1034 183.939 14.6325 183.501 14.2916C183.062 13.9507 182.516 13.7802 181.861 13.7802C181.233 13.7802 180.7 13.9453 180.262 14.2754C179.824 14.6055 179.491 15.0682 179.263 15.6635C179.042 16.2587 178.931 16.9595 178.931 17.7659ZM190.317 24V11.5317H193.256V24H190.317ZM191.795 9.76212C191.329 9.76212 190.929 9.60789 190.593 9.29942C190.258 8.98555 190.09 8.60945 190.09 8.17111C190.09 7.72736 190.258 7.35125 190.593 7.04279C190.929 6.72892 191.329 6.57199 191.795 6.57199C192.265 6.57199 192.666 6.72892 192.996 7.04279C193.332 7.35125 193.499 7.72736 193.499 8.17111C193.499 8.60945 193.332 8.98555 192.996 9.29942C192.666 9.60789 192.265 9.76212 191.795 9.76212ZM199.216 16.6944V24H196.277V11.5317H199.086V13.6503H199.232C199.519 12.9522 199.976 12.3976 200.604 11.9863C201.237 11.575 202.019 11.3694 202.95 11.3694C203.81 11.3694 204.56 11.5534 205.198 11.9213C205.842 12.2893 206.34 12.8224 206.692 13.5205C207.049 14.2186 207.225 15.0655 207.22 16.0612V24H204.281V16.5158C204.281 15.6824 204.065 15.0303 203.632 14.5595C203.204 14.0887 202.612 13.8533 201.854 13.8533C201.34 13.8533 200.883 13.9669 200.482 14.1942C200.087 14.4161 199.776 14.7381 199.549 15.1602C199.327 15.5823 199.216 16.0937 199.216 16.6944ZM215.727 24.2435C214.477 24.2435 213.397 23.9838 212.488 23.4643C211.584 22.9393 210.889 22.1979 210.402 21.2401C209.915 20.2768 209.671 19.1431 209.671 17.8389C209.671 16.5564 209.915 15.4308 210.402 14.4621C210.894 13.488 211.581 12.7304 212.464 12.1892C213.346 11.6426 214.382 11.3694 215.572 11.3694C216.341 11.3694 217.066 11.4938 217.748 11.7428C218.435 11.9863 219.041 12.3651 219.566 12.8792C220.097 13.3933 220.513 14.0481 220.816 14.8436C221.119 15.6337 221.271 16.5753 221.271 17.6684V18.5695H211.051V16.5888H218.454C218.449 16.026 218.327 15.5255 218.089 15.0871C217.851 14.6434 217.518 14.2943 217.09 14.04C216.668 13.7856 216.176 13.6585 215.613 13.6585C215.012 13.6585 214.485 13.8046 214.03 14.0968C213.576 14.3836 213.221 14.7624 212.967 15.2332C212.718 15.6986 212.591 16.21 212.585 16.7674V18.4964C212.585 19.2216 212.718 19.8439 212.983 20.3634C213.248 20.8775 213.619 21.2726 214.095 21.5486C214.571 21.8191 215.129 21.9544 215.767 21.9544C216.195 21.9544 216.582 21.8949 216.928 21.7758C217.274 21.6514 217.575 21.4701 217.829 21.232C218.083 20.9939 218.276 20.6989 218.405 20.3472L221.149 20.6556C220.976 21.3808 220.646 22.0139 220.159 22.5551C219.677 23.0909 219.06 23.5075 218.308 23.8052C217.556 24.0974 216.695 24.2435 215.727 24.2435ZM229.983 11.5317V13.8046H222.815V11.5317H229.983ZM224.585 8.54451H227.523V20.2498C227.523 20.6448 227.583 20.9479 227.702 21.1589C227.826 21.3646 227.989 21.5053 228.189 21.581C228.389 21.6568 228.611 21.6947 228.855 21.6947C229.039 21.6947 229.206 21.6811 229.358 21.6541C229.515 21.627 229.634 21.6027 229.715 21.581L230.21 23.8782C230.053 23.9324 229.829 23.9919 229.536 24.0568C229.25 24.1218 228.898 24.1596 228.481 24.1705C227.745 24.1921 227.082 24.0812 226.492 23.8377C225.903 23.5887 225.434 23.2045 225.088 22.685C224.747 22.1655 224.579 21.5161 224.585 20.7368V8.54451Z" fill="black"/>
</svg>
